<svg width="32" height="32" viewBox="0 0 32 32" fill="none" xmlns="http://www.w3.org/2000/svg">
<rect width="32" height="32" fill="white"/>
<path d="M17.8187 19.6378C17.7818 19.6378 17.7452 19.6305 17.7111 19.6164C17.677 19.6023 17.6459 19.5816 17.6198 19.5555L14.1531 16.0886C14.1004 16.0359 14.0708 15.9643 14.0708 15.8897C14.0708 15.8152 14.1004 15.7436 14.1531 15.6909L17.6198 12.224C17.6459 12.1979 17.6769 12.1772 17.711 12.163C17.7452 12.1489 17.7817 12.1416 17.8187 12.1416C17.8556 12.1416 17.8922 12.1489 17.9263 12.163C17.9604 12.1771 17.9915 12.1978 18.0176 12.2239C18.0437 12.2501 18.0644 12.2811 18.0786 12.3152C18.0927 12.3493 18.1 12.3859 18.1 12.4228C18.1 12.4597 18.0928 12.4963 18.0786 12.5305C18.0645 12.5646 18.0438 12.5956 18.0177 12.6217L14.7497 15.8897L18.0177 19.1576C18.057 19.1969 18.0838 19.2471 18.0947 19.3016C18.1056 19.3562 18.1 19.4128 18.0787 19.4642C18.0574 19.5156 18.0213 19.5595 17.9751 19.5904C17.9288 19.6213 17.8744 19.6378 17.8187 19.6378Z" fill="#111111"/>
</svg>
